<?xml version="1.0" standalone="no"?>
<!DOCTYPE svg PUBLIC "-//W3C//DTD SVG 20010904//EN"
 "http://www.w3.org/TR/2001/REC-SVG-20010904/DTD/svg10.dtd">
<svg version="1.0" xmlns="http://www.w3.org/2000/svg"
 width="256.000000pt" height="256.000000pt" viewBox="0 0 256.000000 256.000000"
 preserveAspectRatio="xMidYMid meet">
<metadata>
Created by potrace 1.11, written by Peter Selinger 2001-2013
</metadata>
<g transform="translate(0.000000,256.000000) scale(0.100000,-0.100000)"
fill="#000000" stroke="none">
<path d="M1180 2055 l0 -510 -210 210 -210 210 -77 -78 -78 -77 265 -265 265
-265 -265 -265 -265 -265 78 -77 77 -78 210 210 210 210 0 -510 0 -510 387
387 388 388 -255 255 -255 255 255 255 255 255 -388 388 -387 387 0 -510z
m342 -387 l-122 -123 0 245 0 245 122 -123 123 -122 -123 -122z m-162 25 l0
-248 215 215 215 215 50 -50 50 -50 -250 -250 -250 -250 247 -247 248 -248
-45 -45 c-24 -25 -48 -45 -52 -45 -5 0 -103 96 -218 213 l-209 212 -1 -222 0
-223 -70 0 -70 0 0 635 0 635 70 0 70 0 0 -247z m162 -1045 l-122 -123 0 245
0 245 122 -123 123 -122 -123 -122z"/>
</g>
</svg>
